<svg width="100" height="100" viewBox="0 0 942 816" fill="none" xmlns="http://www.w3.org/2000/svg">
  <path fill="#000000" d="M0.999998 713.333C1.66632 712.011 2.80492 711.077 2.92882 710.024C5.12917 691.325 10.7248 673.544 18.0667 656.356C24.6203 641.013 31.5257 625.781 39.1197 610.931C51.123 587.46 62.7018 563.676 78.0646 542.128C90.0006 525.387 102.198 508.801 114.987 492.708C126.483 478.242 138.924 464.524 150.991 450.513C154.738 446.163 158.627 441.936 162.451 437.653C163.067 437.811 163.684 437.969 164.301 438.128C164.15 439.914 164.592 442.062 163.756 443.43C155.46 457.028 146.859 470.44 138.527 484.016C127.93 501.282 117.144 518.446 107.1 536.031C96.2645 555.003 85.8227 574.222 75.9039 593.687C68.1387 608.926 63.2244 625.176 60.7888 642.263C59.7129 649.811 60.0518 656.958 62.4813 663.842C66.1571 674.258 74.8824 679.556 84.9835 681.786C93.6817 683.706 102.769 685.004 111.633 684.754C123.822 684.411 135.981 682.505 148.119 680.994C178.759 677.18 208.456 669.054 238.134 660.904C239.284 660.588 240.208 658.977 240.934 657.785C241.304 657.177 241 656.158 241 655.325C241 513.036 241 370.747 241 228.459C241 227.142 241 225.824 241 224.276C230.896 222.812 221.714 219.156 214.745 212C207.167 204.217 202.359 194.534 202.096 183.45C201.719 167.508 202 151.551 202 135C195.562 135 189.297 135.116 183.038 134.977C167.143 134.626 153.018 129.771 142.221 117.626C133.478 107.792 128.376 96.002 128.144 82.9099C127.666 55.9266 128 28.929 128 1.46866C351.021 1 574.042 1 797.531 1.46866C797.667 29.1827 797.58 56.4343 796.893 83.6707C796.565 96.6596 791.408 108.133 782.672 117.772C771.759 129.812 757.674 134.668 741.776 134.981C735.863 135.098 729.947 135 724 135C724 144.232 724.258 152.74 723.932 161.225C723.56 170.888 723.273 180.623 721.824 190.156C720.439 199.27 715.783 207.317 708.871 213.458C701.933 219.622 693.493 223.176 684.207 224.173C684.207 308.274 684.207 392.018 684.207 476.119C690.025 473.477 695.622 471.14 701.041 468.442C733.725 452.168 766.39 435.855 799.018 419.466C823.319 407.26 847.637 395.081 871.794 382.593C893.214 371.521 914.433 360.059 935.711 348.713C938.294 347.336 940.693 345.62 943 349C943 349 943 349.5 942.652 349.833C939.382 351.816 936.438 353.428 933.542 355.121C909.669 369.074 885.927 383.256 861.906 396.946C836.221 411.584 810.321 425.846 784.428 440.116C764.862 450.898 745.221 461.547 725.504 472.05C699.674 485.81 673.98 499.86 647.793 512.912C592.809 540.317 537.602 567.275 482.356 594.15C464.765 602.708 446.894 610.725 428.921 618.454C399.784 630.984 370.536 643.261 341.193 655.298C304.719 670.259 267.707 683.756 230.054 695.502C198.05 705.486 165.538 713.24 132.107 715.737C115.274 716.994 98.095 717.396 81.4399 712.948C66.0024 708.824 51.9374 702.284 42.2411 688.753C41.1016 687.163 39.8336 685.665 38.3602 683.786C33.2956 702.4 30.1691 720.408 32.9445 739.076C35.4958 756.236 44.882 768.297 60.1866 775.534C78.8337 784.35 99.1436 785.158 119.269 785.843C127.57 786.125 135.954 784.875 144.259 783.954C157.685 782.466 171.163 781.169 184.464 778.891C203.546 775.623 222.69 772.34 241.442 767.615C265.692 761.504 289.723 754.413 313.6 746.951C366.681 730.362 419.135 711.95 470.687 691.037C500.96 678.756 531.29 666.612 561.448 654.057C582.753 645.188 603.917 635.962 624.956 626.481C654.059 613.366 683.029 599.954 711.974 586.492C732.065 577.147 752.061 567.595 772.022 557.972C795.194 546.801 818.357 535.605 841.386 524.144C872.934 508.443 904.329 492.438 935.875 476.733C937.876 475.737 940.608 476.21 943 476C943 476.444 943 476.889 942.648 477.754C931.1 484.458 919.937 490.802 908.7 497.013C885.639 509.758 862.588 522.521 839.44 535.106C819.388 546.007 799.27 556.791 779.067 567.408C758.139 578.407 737.199 589.396 716.036 599.931C688.702 613.536 661.152 626.707 633.674 640.022C620.085 646.607 606.535 653.284 592.815 659.588C563.243 673.174 533.645 686.71 503.917 699.95C483.867 708.879 463.671 717.495 443.367 725.83C425.005 733.367 406.539 740.693 387.886 747.469C356.135 759.003 324.285 770.279 292.318 781.199C263.273 791.121 233.697 799.284 203.539 805.1C184.812 808.712 165.971 811.739 147.175 814.988C142.798 815.744 138.392 816.334 134 817C120.312 817 106.625 817 92.3119 816.599C88.1262 815.799 84.5557 815.475 81.0074 814.989C66.1167 812.946 51.8794 808.85 38.9499 800.976C20.3941 789.676 8.31765 773.695 3.91553 752.166C3.40767 749.683 1.9938 747.384 1 745C1 744.556 1 744.111 1.37707 743.207C1.50276 740.832 1.25138 738.916 1 737C1 732.311 1 727.622 1.38325 722.333C1.511 719.489 1.2555 717.245 1.000001 715C1 714.556 1 714.111 0.999998 713.333ZM297.5 20C247.078 20 196.655 20 146 20C146 37.5301 145.629 54.5148 146.173 71.4701C146.408 78.8052 147.761 86.3203 149.953 93.3326C154.769 108.737 167.868 115.872 181.096 115.884C368.729 116.054 556.362 116.024 743.995 115.924C752.812 115.919 760.667 112.481 767.163 106.335C775.754 98.2072 778.602 87.6083 778.885 76.4133C779.322 59.0941 779.006 41.7558 778.99 24.4256C778.988 22.9961 778.842 21.5667 778.755 20C618.413 20 458.457 20 297.5 20ZM347 236.517C347 232.747 347 228.977 347 225.272C317.374 225.272 288.311 225.272 259.157 225.272C259.157 368.548 259.157 511.554 259.157 655.212C288.725 645.14 317.951 635.183 347 625.287C347 495.384 347 366.448 347 236.517ZM386.5 206C482.83 206 579.161 206.016 675.491 205.935C679.017 205.932 682.654 205.363 686.048 204.391C698.921 200.702 703.712 191.939 704.745 178.707C705.866 164.343 705 149.824 705 135.208C543.182 135.208 381.78 135.208 220.001 135.208C220.001 149.868 219.598 164.341 220.18 178.774C220.45 185.465 222.794 191.881 227.602 197.241C233.429 203.738 240.817 205.937 249.004 205.954C294.503 206.05 340.001 206 386.5 206ZM365 430.5C365 492.843 365 555.185 365 618.271C395.463 605.89 425.241 593.789 454.688 581.821C454.688 462.591 454.688 343.879 454.688 225.307C424.642 225.307 394.909 225.307 365 225.307C365 293.576 365 361.538 365 430.5ZM559 403.5C559 344.092 559 284.684 559 225.248C530.088 225.248 501.692 225.248 473.152 225.248C473.152 341.5 473.152 457.503 473.152 573.598C481.549 570.018 489.83 566.608 498.012 562.976C517.057 554.522 536.032 545.909 555.095 537.496C557.957 536.232 559.118 534.829 559.105 531.437C558.945 489.125 559 446.813 559 403.5ZM666 268.5C666 254.075 666 239.651 666 225.266C636.379 225.266 607.319 225.266 578.365 225.266C578.365 325.65 578.365 425.767 578.365 526.564C584.121 523.889 589.343 521.505 594.529 519.044C616.724 508.515 638.859 497.861 661.14 487.518C665.025 485.715 666.109 483.533 666.1 479.377C665.96 409.418 666 339.459 666 268.5Z"/>
</svg>