<svg version="1.1" id="Layer_1" xmlns="http://www.w3.org/2000/svg" xmlns:xlink="http://www.w3.org/1999/xlink" x="0px" y="0px"
	 width="100%" viewBox="0 0 942 816" enable-background="new 0 0 942 816" xml:space="preserve">
<path fill="#FFFFFF" opacity="1.000000" stroke="none" 
	d="
M0.999998,713.000000 
	C1.000000,475.788391 1.000000,238.576782 1.000000,1.000000 
	C43.022621,1.000000 85.046295,1.000000 127.534988,1.468657 
	C128.000000,28.929012 127.665588,55.926636 128.143967,82.909851 
	C128.376068,96.001976 133.478302,107.791649 142.220703,117.625732 
	C153.017761,129.771057 167.142822,134.626144 183.038376,134.977325 
	C189.297424,135.115616 195.562088,135.000000 202.000000,135.000000 
	C202.000000,151.550537 201.718674,167.508011 202.096481,183.449860 
	C202.359177,194.533813 207.166885,204.217041 214.745499,211.999771 
	C221.713623,219.155594 230.896301,222.812286 241.000000,224.275833 
	C241.000000,225.824326 241.000000,227.141510 241.000000,228.458694 
	C241.000000,370.747498 241.000000,513.036255 240.999969,655.325073 
	C240.999969,656.158142 241.304459,657.176941 240.934326,657.784851 
	C240.208374,658.977112 239.284439,660.588074 238.134354,660.903931 
	C208.456100,669.053833 178.759125,677.180481 148.119141,680.993958 
	C135.981216,682.504578 123.821632,684.410828 111.632973,684.754150 
	C102.769035,685.003723 93.681694,683.705750 84.983536,681.785889 
	C74.882416,679.556335 66.157089,674.258484 62.481293,663.842102 
	C60.051826,656.957520 59.712891,649.810730 60.788841,642.262756 
	C63.224449,625.176331 68.138672,608.926208 75.903870,593.687378 
	C85.822731,574.222046 96.264526,555.002747 107.100296,536.031189 
	C117.144157,518.446045 127.930290,501.281647 138.526657,484.016144 
	C146.858887,470.439758 155.459549,457.027924 163.756439,443.430389 
	C164.591614,442.061676 164.149933,439.913849 164.300827,438.127594 
	C163.684128,437.969482 163.067444,437.811371 162.450745,437.653259 
	C158.626877,441.936401 154.737686,446.163269 150.991196,450.513062 
	C138.923538,464.523743 126.483421,478.241882 114.986679,492.708435 
	C102.197716,508.800995 90.000626,525.387268 78.064629,542.128479 
	C62.701832,563.676147 51.122986,587.459778 39.119698,610.931458 
	C31.525721,625.780945 24.620293,641.013062 18.066689,656.355835 
	C10.724841,673.544006 5.129170,691.325134 2.928817,710.024353 
	C2.804916,711.077332 1.666319,712.010864 0.999998,713.000000 
z"/>
<path fill="#000000" opacity="1.000000" stroke="none" 
	d="
M0.999998,713.333313 
	C1.666319,712.010864 2.804916,711.077332 2.928817,710.024353 
	C5.129170,691.325134 10.724841,673.544006 18.066689,656.355835 
	C24.620293,641.013062 31.525721,625.780945 39.119698,610.931458 
	C51.122986,587.459778 62.701832,563.676147 78.064629,542.128479 
	C90.000626,525.387268 102.197716,508.800995 114.986679,492.708435 
	C126.483421,478.241882 138.923538,464.523743 150.991196,450.513062 
	C154.737686,446.163269 158.626877,441.936401 162.450745,437.653259 
	C163.067444,437.811371 163.684128,437.969482 164.300827,438.127594 
	C164.149933,439.913849 164.591614,442.061676 163.756439,443.430389 
	C155.459549,457.027924 146.858887,470.439758 138.526657,484.016144 
	C127.930290,501.281647 117.144157,518.446045 107.100296,536.031189 
	C96.264526,555.002747 85.822731,574.222046 75.903870,593.687378 
	C68.138672,608.926208 63.224449,625.176331 60.788841,642.262756 
	C59.712891,649.810730 60.051826,656.957520 62.481293,663.842102 
	C66.157089,674.258484 74.882416,679.556335 84.983536,681.785889 
	C93.681694,683.705750 102.769035,685.003723 111.632973,684.754150 
	C123.821632,684.410828 135.981216,682.504578 148.119141,680.993958 
	C178.759125,677.180481 208.456100,669.053833 238.134354,660.903931 
	C239.284439,660.588074 240.208374,658.977112 240.934326,657.784851 
	C241.304459,657.176941 240.999969,656.158142 240.999969,655.325073 
	C241.000000,513.036255 241.000000,370.747498 241.000000,228.458694 
	C241.000000,227.141510 241.000000,225.824326 241.000000,224.275833 
	C230.896301,222.812286 221.713623,219.155594 214.745499,211.999771 
	C207.166885,204.217041 202.359177,194.533813 202.096481,183.449860 
	C201.718674,167.508011 202.000000,151.550537 202.000000,135.000000 
	C195.562088,135.000000 189.297424,135.115616 183.038376,134.977325 
	C167.142822,134.626144 153.017761,129.771057 142.220703,117.625732 
	C133.478302,107.791649 128.376068,96.001976 128.143967,82.909851 
	C127.665588,55.926636 128.000000,28.929012 128.000000,1.468657 
	C351.020905,1.000000 574.041809,1.000000 797.531311,1.468657 
	C797.666626,29.182676 797.579834,56.434258 796.892639,83.670692 
	C796.564941,96.659592 791.408325,108.133484 782.672180,117.771797 
	C771.759094,129.811966 757.673950,134.668320 741.775574,134.981186 
	C735.863098,135.097534 729.946533,135.000000 724.000000,135.000000 
	C724.000000,144.232361 724.258301,152.740082 723.931763,161.225296 
	C723.559875,170.888107 723.273499,180.623154 721.824463,190.155716 
	C720.438965,199.270248 715.782776,207.317337 708.871338,213.457687 
	C701.932983,219.622040 693.492859,223.175690 684.207397,224.172638 
	C684.207397,308.273865 684.207397,392.017578 684.207397,476.118591 
	C690.024658,473.477325 695.622437,471.140045 701.040527,468.442230 
	C733.724915,452.167664 766.390320,435.854675 799.017822,419.466492 
	C823.319336,407.260345 847.636597,395.081024 871.793640,382.593323 
	C893.213623,371.520508 914.432800,360.058563 935.711060,348.713013 
	C938.294189,347.335724 940.693298,345.619812 943.000000,349.000000 
	C943.000000,349.000000 943.000000,349.500000 942.651978,349.833496 
	C939.382019,351.816376 936.438171,353.428223 933.541687,355.121094 
	C909.669006,369.073730 885.927368,383.255707 861.905518,396.946198 
	C836.220947,411.584320 810.320618,425.846466 784.427856,440.115631 
	C764.862305,450.897980 745.221191,461.546967 725.504456,472.050232 
	C699.673767,485.810394 673.980286,499.859711 647.792847,512.912048 
	C592.809265,540.317017 537.601562,567.275208 482.356110,594.150085 
	C464.764832,602.707581 446.893768,610.724976 428.920502,618.454224 
	C399.784454,630.983826 370.535950,643.260620 341.192719,655.297607 
	C304.719238,670.259460 267.707336,683.755798 230.053818,695.502075 
	C198.050293,705.485840 165.537766,713.239746 132.106628,715.736633 
	C115.273911,716.993835 98.095032,717.396179 81.439919,712.947693 
	C66.002449,708.824463 51.937428,702.283691 42.241123,688.753052 
	C41.101559,687.162842 39.833553,685.664734 38.360233,683.786255 
	C33.295574,702.400024 30.169096,720.408142 32.944523,739.075867 
	C35.495811,756.235962 44.882042,768.297119 60.186565,775.533508 
	C78.833733,784.350403 99.143608,785.158020 119.268967,785.842651 
	C127.570213,786.125000 135.953644,784.874878 144.258957,783.954163 
	C157.685150,782.465637 171.162598,781.169250 184.464172,778.891052 
	C203.546066,775.622864 222.689621,772.339905 241.441833,767.614685 
	C265.692139,761.504028 289.722534,754.413208 313.599731,746.951233 
	C366.681396,730.362488 419.135193,711.950073 470.686951,691.036743 
	C500.959564,678.755920 531.289917,666.612427 561.448486,654.057068 
	C582.752808,645.187866 603.916687,635.962341 624.956360,626.481079 
	C654.059082,613.366272 683.029053,599.953857 711.973511,586.491943 
	C732.065063,577.147461 752.061279,567.594788 772.021667,557.972290 
	C795.194153,546.801331 818.356995,535.605286 841.386414,524.143555 
	C872.933533,508.442535 904.329407,492.437653 935.875000,476.733368 
	C937.875793,475.737274 940.608032,476.210358 943.000000,476.000000 
	C943.000000,476.444458 943.000000,476.888885 942.647888,477.753571 
	C931.099426,484.457703 919.936768,490.802429 908.699768,497.012756 
	C885.639282,509.757629 862.588074,522.520996 839.440002,535.105530 
	C819.388000,546.006836 799.270081,556.790771 779.066650,567.408386 
	C758.138611,578.406860 737.198853,589.396484 716.035522,599.930603 
	C688.701965,613.536011 661.151917,626.707214 633.674011,640.022095 
	C620.084656,646.606934 606.535217,653.283997 592.815369,659.587585 
	C563.243225,673.174438 533.645264,686.710144 503.916748,699.949951 
	C483.867371,708.879089 463.670563,717.495056 443.366608,725.829529 
	C425.004669,733.366699 406.539124,740.693115 387.885559,747.469055 
	C356.134674,759.002563 324.285156,770.279297 292.318268,781.198975 
	C263.272949,791.120728 233.696671,799.283569 203.539124,805.099976 
	C184.811768,808.711731 165.971359,811.739380 147.174606,814.987976 
	C142.797897,815.744385 138.392303,816.333740 134.000000,817.000000 
	C120.312439,817.000000 106.624878,817.000000 92.311928,816.598877 
	C88.126236,815.799072 84.555656,815.475403 81.007439,814.988708 
	C66.116730,812.945984 51.879429,808.850159 38.949894,800.976440 
	C20.394140,789.676392 8.317653,773.694641 3.915528,752.166321 
	C3.407669,749.682678 1.993799,747.384277 0.999996,745.000000 
	C1.000000,744.555542 1.000000,744.111084 1.377068,743.207214 
	C1.502756,740.831848 1.251377,738.915955 0.999999,737.000000 
	C1.000000,732.310730 1.000000,727.621521 1.383246,722.332886 
	C1.510996,719.489014 1.255499,717.244507 1.000001,715.000000 
	C1.000000,714.555542 1.000000,714.111084 0.999998,713.333313 
M297.500000,20.000000 
	C247.077698,20.000000 196.655380,20.000000 146.000000,20.000000 
	C146.000000,37.530113 145.629120,54.514774 146.172699,71.470116 
	C146.407867,78.805191 147.760773,86.320328 149.952942,93.332581 
	C154.768555,108.736679 167.867844,115.871857 181.095749,115.883881 
	C368.728577,116.054375 556.361633,116.024284 743.994568,115.923927 
	C752.812317,115.919212 760.667297,112.480804 767.162720,106.335434 
	C775.753906,98.207245 778.601685,87.608345 778.884644,76.413307 
	C779.322327,59.094147 779.005615,41.755772 778.989746,24.425564 
	C778.988464,22.996090 778.841797,21.566746 778.755127,20.000000 
	C618.413391,20.000000 458.456696,20.000000 297.500000,20.000000 
M347.000000,236.517151 
	C347.000000,232.746933 347.000000,228.976715 347.000000,225.271530 
	C317.374207,225.271530 288.311371,225.271530 259.157166,225.271530 
	C259.157166,368.548340 259.157166,511.553589 259.157166,655.212402 
	C288.724518,645.139709 317.951050,635.183044 347.000000,625.286987 
	C347.000000,495.384155 347.000000,366.447571 347.000000,236.517151 
M386.500000,206.000000 
	C482.830475,206.000000 579.160950,206.016327 675.491394,205.935120 
	C679.017273,205.932144 682.654053,205.363464 686.047913,204.390900 
	C698.921326,200.701782 703.711731,191.939423 704.744812,178.706680 
	C705.866150,164.342957 704.999084,149.824020 704.999084,135.207611 
	C543.181519,135.207611 381.779877,135.207611 220.001022,135.207611 
	C220.001022,149.868393 219.597702,164.340973 220.180084,178.773758 
	C220.450073,185.464722 222.794128,191.881256 227.601776,197.241440 
	C233.429138,203.738495 240.817169,205.936981 249.004257,205.954178 
	C294.502686,206.049713 340.001404,206.000000 386.500000,206.000000 
M365.000000,430.500000 
	C365.000000,492.842651 365.000000,555.185303 365.000000,618.270874 
	C395.463226,605.890442 425.240784,593.788696 454.687500,581.821411 
	C454.687500,462.591003 454.687500,343.879333 454.687500,225.307037 
	C424.641571,225.307037 394.908997,225.307037 365.000000,225.307037 
	C365.000000,293.575958 365.000000,361.537964 365.000000,430.500000 
M559.000000,403.500000 
	C559.000000,344.091980 559.000000,284.683960 559.000000,225.247650 
	C530.087769,225.247650 501.692383,225.247650 473.152374,225.247650 
	C473.152374,341.499359 473.152374,457.503387 473.152374,573.597656 
	C481.549408,570.018127 489.829926,566.608459 498.011719,562.976318 
	C517.056641,554.521667 536.031616,545.909119 555.094666,537.495972 
	C557.957458,536.232483 559.118042,534.829224 559.105164,531.437378 
	C558.944519,489.125427 559.000000,446.812592 559.000000,403.500000 
M666.000000,268.500000 
	C666.000000,254.075363 666.000000,239.650726 666.000000,225.266388 
	C636.378967,225.266388 607.318970,225.266388 578.365234,225.266388 
	C578.365234,325.650055 578.365234,425.766907 578.365234,526.564392 
	C584.120789,523.889465 589.343018,521.504883 594.529358,519.044495 
	C616.723511,508.515320 638.859192,497.860748 661.139832,487.518127 
	C665.024536,485.714905 666.108582,483.533173 666.100281,479.376740 
	C665.960083,409.418060 666.000000,339.458984 666.000000,268.500000 
z"/>
<path fill="#FFFFFF" opacity="1.000000" stroke="none" 
	d="
M134.468658,817.000000 
	C138.392303,816.333740 142.797897,815.744385 147.174606,814.987976 
	C165.971359,811.739380 184.811768,808.711731 203.539124,805.099976 
	C233.696671,799.283569 263.272949,791.120728 292.318268,781.198975 
	C324.285156,770.279297 356.134674,759.002563 387.885559,747.469055 
	C406.539124,740.693115 425.004669,733.366699 443.366608,725.829529 
	C463.670563,717.495056 483.867371,708.879089 503.916748,699.949951 
	C533.645264,686.710144 563.243225,673.174438 592.815369,659.587585 
	C606.535217,653.283997 620.084656,646.606934 633.674011,640.022095 
	C661.151917,626.707214 688.701965,613.536011 716.035522,599.930603 
	C737.198853,589.396484 758.138611,578.406860 779.066650,567.408386 
	C799.270081,556.790771 819.388000,546.006836 839.440002,535.105530 
	C862.588074,522.520996 885.639282,509.757629 908.699768,497.012756 
	C919.936768,490.802429 931.099426,484.457703 942.647888,478.086914 
	C943.000000,590.956970 943.000000,703.913879 943.000000,817.000000 
	C673.645813,817.000000 404.291565,817.000000 134.468658,817.000000 
z"/>
<path fill="#FFFFFF" opacity="1.000000" stroke="none" 
	d="
M943.000000,348.531342 
	C940.693298,345.619812 938.294189,347.335724 935.711060,348.713013 
	C914.432800,360.058563 893.213623,371.520508 871.793640,382.593323 
	C847.636597,395.081024 823.319336,407.260345 799.017822,419.466492 
	C766.390320,435.854675 733.724915,452.167664 701.040527,468.442230 
	C695.622437,471.140045 690.024658,473.477325 684.207397,476.118591 
	C684.207397,392.017578 684.207397,308.273865 684.207397,224.172638 
	C693.492859,223.175690 701.932983,219.622040 708.871338,213.457687 
	C715.782776,207.317337 720.438965,199.270248 721.824463,190.155716 
	C723.273499,180.623154 723.559875,170.888107 723.931763,161.225296 
	C724.258301,152.740082 724.000000,144.232361 724.000000,135.000000 
	C729.946533,135.000000 735.863098,135.097534 741.775574,134.981186 
	C757.673950,134.668320 771.759094,129.811966 782.672180,117.771797 
	C791.408325,108.133484 796.564941,96.659592 796.892639,83.670692 
	C797.579834,56.434258 797.666626,29.182676 798.000000,1.468657 
	C846.290405,1.000000 894.580811,1.000000 943.000000,1.000000 
	C943.000000,116.687531 943.000000,232.375107 943.000000,348.531342 
z"/>
<path fill="#FFFFFF" opacity="1.000000" stroke="none" 
	d="
M943.000000,475.531311 
	C940.608032,476.210358 937.875793,475.737274 935.875000,476.733368 
	C904.329407,492.437653 872.933533,508.442535 841.386414,524.143555 
	C818.356995,535.605286 795.194153,546.801331 772.021667,557.972290 
	C752.061279,567.594788 732.065063,577.147461 711.973511,586.491943 
	C683.029053,599.953857 654.059082,613.366272 624.956360,626.481079 
	C603.916687,635.962341 582.752808,645.187866 561.448486,654.057068 
	C531.289917,666.612427 500.959564,678.755920 470.686951,691.036743 
	C419.135193,711.950073 366.681396,730.362488 313.599731,746.951233 
	C289.722534,754.413208 265.692139,761.504028 241.441833,767.614685 
	C222.689621,772.339905 203.546066,775.622864 184.464172,778.891052 
	C171.162598,781.169250 157.685150,782.465637 144.258957,783.954163 
	C135.953644,784.874878 127.570213,786.125000 119.268967,785.842651 
	C99.143608,785.158020 78.833733,784.350403 60.186565,775.533508 
	C44.882042,768.297119 35.495811,756.235962 32.944523,739.075867 
	C30.169096,720.408142 33.295574,702.400024 38.360233,683.786255 
	C39.833553,685.664734 41.101559,687.162842 42.241123,688.753052 
	C51.937428,702.283691 66.002449,708.824463 81.439919,712.947693 
	C98.095032,717.396179 115.273911,716.993835 132.106628,715.736633 
	C165.537766,713.239746 198.050293,705.485840 230.053818,695.502075 
	C267.707336,683.755798 304.719238,670.259460 341.192719,655.297607 
	C370.535950,643.260620 399.784454,630.983826 428.920502,618.454224 
	C446.893768,610.724976 464.764832,602.707581 482.356110,594.150085 
	C537.601562,567.275208 592.809265,540.317017 647.792847,512.912048 
	C673.980286,499.859711 699.673767,485.810394 725.504456,472.050232 
	C745.221191,461.546967 764.862305,450.897980 784.427856,440.115631 
	C810.320618,425.846466 836.220947,411.584320 861.905518,396.946198 
	C885.927368,383.255707 909.669006,369.073730 933.541687,355.121094 
	C936.438171,353.428223 939.382019,351.816376 942.651978,350.083496 
	C943.000000,391.687561 943.000000,433.375122 943.000000,475.531311 
z"/>
<path fill="#FFFFFF" opacity="1.000000" stroke="none" 
	d="
M0.999996,745.468628 
	C1.993799,747.384277 3.407669,749.682678 3.915528,752.166321 
	C8.317653,773.694641 20.394140,789.676392 38.949894,800.976440 
	C51.879429,808.850159 66.116730,812.945984 81.007439,814.988708 
	C84.555656,815.475403 88.126236,815.799072 91.843269,816.598877 
	C61.748295,817.000000 31.496593,817.000000 1.000000,817.000000 
	C1.000000,793.312988 1.000000,769.625183 0.999996,745.468628 
z"/>
<path fill="#FFFFFF" opacity="1.000000" stroke="none" 
	d="
M1.000001,715.437439 
	C1.255499,717.244507 1.510996,719.489014 1.383246,721.866760 
	C1.000000,719.958313 1.000000,717.916565 1.000001,715.437439 
z"/>
<path fill="#FFFFFF" opacity="1.000000" stroke="none" 
	d="
M0.999999,737.428467 
	C1.251377,738.915955 1.502756,740.831848 1.377068,742.873901 
	C1.000000,741.285645 1.000000,739.571289 0.999999,737.428467 
z"/>
<path fill="#FFFFFF" opacity="1.000000" stroke="none" 
	d="
M298.000000,20.000000 
	C458.456696,20.000000 618.413391,20.000000 778.755127,20.000000 
	C778.841797,21.566746 778.988464,22.996090 778.989746,24.425564 
	C779.005615,41.755772 779.322327,59.094147 778.884644,76.413307 
	C778.601685,87.608345 775.753906,98.207245 767.162720,106.335434 
	C760.667297,112.480804 752.812317,115.919212 743.994568,115.923927 
	C556.361633,116.024284 368.728577,116.054375 181.095749,115.883881 
	C167.867844,115.871857 154.768555,108.736679 149.952942,93.332581 
	C147.760773,86.320328 146.407867,78.805191 146.172699,71.470116 
	C145.629120,54.514774 146.000000,37.530113 146.000000,20.000000 
	C196.655380,20.000000 247.077698,20.000000 298.000000,20.000000 
z"/>
<path fill="#FFFFFF" opacity="1.000000" stroke="none" 
	d="
M347.000000,237.014069 
	C347.000000,366.447571 347.000000,495.384155 347.000000,625.286987 
	C317.951050,635.183044 288.724518,645.139709 259.157166,655.212402 
	C259.157166,511.553589 259.157166,368.548340 259.157166,225.271530 
	C288.311371,225.271530 317.374207,225.271530 347.000000,225.271530 
	C347.000000,228.976715 347.000000,232.746933 347.000000,237.014069 
z"/>
<path fill="#FFFFFF" opacity="1.000000" stroke="none" 
	d="
M386.000000,206.000000 
	C340.001404,206.000000 294.502686,206.049713 249.004257,205.954178 
	C240.817169,205.936981 233.429138,203.738495 227.601776,197.241440 
	C222.794128,191.881256 220.450073,185.464722 220.180084,178.773758 
	C219.597702,164.340973 220.001022,149.868393 220.001022,135.207611 
	C381.779877,135.207611 543.181519,135.207611 704.999084,135.207611 
	C704.999084,149.824020 705.866150,164.342957 704.744812,178.706680 
	C703.711731,191.939423 698.921326,200.701782 686.047913,204.390900 
	C682.654053,205.363464 679.017273,205.932144 675.491394,205.935120 
	C579.160950,206.016327 482.830475,206.000000 386.000000,206.000000 
z"/>
<path fill="#FFFFFF" opacity="1.000000" stroke="none" 
	d="
M365.000000,430.000000 
	C365.000000,361.537964 365.000000,293.575958 365.000000,225.307037 
	C394.908997,225.307037 424.641571,225.307037 454.687500,225.307037 
	C454.687500,343.879333 454.687500,462.591003 454.687500,581.821411 
	C425.240784,593.788696 395.463226,605.890442 365.000000,618.270874 
	C365.000000,555.185303 365.000000,492.842651 365.000000,430.000000 
z"/>
<path fill="#FFFFFF" opacity="1.000000" stroke="none" 
	d="
M559.000000,404.000000 
	C559.000000,446.812592 558.944519,489.125427 559.105164,531.437378 
	C559.118042,534.829224 557.957458,536.232483 555.094666,537.495972 
	C536.031616,545.909119 517.056641,554.521667 498.011719,562.976318 
	C489.829926,566.608459 481.549408,570.018127 473.152374,573.597656 
	C473.152374,457.503387 473.152374,341.499359 473.152374,225.247650 
	C501.692383,225.247650 530.087769,225.247650 559.000000,225.247650 
	C559.000000,284.683960 559.000000,344.091980 559.000000,404.000000 
z"/>
<path fill="#FFFFFF" opacity="1.000000" stroke="none" 
	d="
M666.000000,269.000000 
	C666.000000,339.458984 665.960083,409.418060 666.100281,479.376740 
	C666.108582,483.533173 665.024536,485.714905 661.139832,487.518127 
	C638.859192,497.860748 616.723511,508.515320 594.529358,519.044495 
	C589.343018,521.504883 584.120789,523.889465 578.365234,526.564392 
	C578.365234,425.766907 578.365234,325.650055 578.365234,225.266388 
	C607.318970,225.266388 636.378967,225.266388 666.000000,225.266388 
	C666.000000,239.650726 666.000000,254.075363 666.000000,269.000000 
z"/>
</svg>